<svg class="icons" xmlns="http://www.w3.org/2000/svg" viewBox="-30 -30 512 512" fill="white">
                <circle cx="224.7" cy="39.7" r="39.2" />
                <path d="M239.9 88.3c-0.2 0-0.4 0-0.6 0h-29.3c-30 0.6-53.9 25.3-53.3 55.3 0 0.2 0 0.4 0 0.6v8.4c0 4.2 1.6 8.9 6.3 8.9h123.3c4.7 0 6.3-4.7 6.3-8.9v-8.4C293.5 114.2 269.9 89.2 239.9 88.3z" />
                <path d="M54.9 260.7c4.3 0 7.8-3.5 7.8-7.8 -0.1-49.2 22.2-95.7 60.6-126.4 3.3-2.4 4-6.9 1.7-10.2 -0.2-0.3-0.4-0.5-0.6-0.8 -2.8-3.3-7.6-3.8-11-1 -41.9 33.7-66.3 84.6-66.4 138.4C47 257.2 50.6 260.7 54.9 260.7z" />
                <path d="M276.4 406.5L276.4 406.5c-33.4 11-69.5 11-102.9 0 -4.1-1.3-8.5 0.9-9.9 5 0 0.1 0 0.1-0.1 0.2 -1.1 4.2 1.2 8.5 5.2 9.9 18.1 5.9 36.9 8.9 55.9 8.9 19.4 0 38.6-3.2 56.9-9.4 3.8-2 5.4-6.7 3.4-10.6C283.4 407.4 279.9 405.8 276.4 406.5z" />
                <path d="M318.1 120.6c0 0 0.1 0 0.1 0.1 42.8 30.4 68.3 79.6 68.4 132.2 0 4.3 3.5 7.8 7.8 7.8s7.8-3.5 7.8-7.8c-0.1-57.7-28.2-111.8-75.2-145.2 -3.7-2.2-8.4-1.3-11 2.1C313.6 113.3 314.5 118.2 318.1 120.6z" />
                <circle cx="67.9" cy="327.1" r="39.2" />
                <path d="M83.1 375.7c-0.2 0-0.4 0-0.6 0H53.3C23.3 376.2-0.6 401 0 431c0 0.2 0 0.4 0 0.6v8.4c0 4.2 1.6 8.9 6.3 8.9H129.6c4.7 0 6.3-4.7 6.3-8.9v-8.4C136.7 401.6 113.1 376.5 83.1 375.7z" />
                <circle cx="381.4" cy="327.1" r="39.2" />
                <path d="M396.6 375.7c-0.2 0-0.4 0-0.6 0h-29.3c-30 0.6-53.9 25.3-53.3 55.3 0 0.2 0 0.4 0 0.6v8.4c0 4.2 1.6 8.9 6.3 8.9H443.1c4.7 0 6.3-4.7 6.3-8.9v-8.4C450.2 401.6 426.6 376.5 396.6 375.7z" /> </svg>