<svg enable-background="new 0 0 400 400" version="1.1" viewBox="66 70 385 375" xml:space="preserve" fill="white" xmlns="http://www.w3.org/2000/svg">
	<path d="m344.6 311c-8.6-2.2-9.4-1.9-13.6 5.7-7.9 14.3-15.8 28.6-23.7 42.8-4.5 8.2-4 10.1 4.1 14.5 1.3 0.7 2.6 1.5 4.4 2.5-2.6 4.7-5.3 9.2-7.6 13.9-0.9 1.7-1.8 4.1-1.2 5.6 0.7 1.9 2.9 4.3 4.5 4.4 2 0.1 4.9-1.4 6.1-3.1 3.2-4.6 5.7-9.7 8.7-15 2.5 1.3 4.7 2.5 6.9 3.6 4.7 2.3 7.5 1.6 10-2.9 9.1-16.3 18-32.6 27.1-48.9 1.9-3.4 1.6-6.8-1.7-8.7-3.9-2.2-2.8-4.4-1.2-7.3 7.7-13.8 15.3-27.7 23-41.5 7.2-13 10.5-26.8 10.4-41.7-0.1-29.2 0.1-58.3 0.1-87.5v-4.3c0.6-0.2 1.1-0.5 1.7-0.7 6.4 10.6 13.5 20.8 19.1 31.7 48 95.1 5.4 209.8-92.4 252.9-74.9 33-182.1 11.1-233.9-79.2-35.6-62.2-32.6-151.7 22.7-213.7 31.4-35.2 70.7-55.8 117.4-60.8 50.1-5.4 95.7 7.3 135.8 38.6 4.5 3.5 6.3 7.3 6.3 13-0.4 26.5-0.4 53-0.5 79.5 0 11.3 0.2 22.6-0.1 34-0.2 10.7-3.5 20.7-8.5 30-7.4 13.6-15.1 27.1-22.6 40.6-0.3 0.8-0.9 1.4-1.3 2zm-88.9 14.5c37.2 0.2 68.3-30.5 68.5-67.7 0.2-38.2-30-69-67.9-69.3-37.7-0.2-68.6 30.3-68.8 67.9-0.2 37.8 30.4 68.9 68.2 69.1zm-29.5-228.9c-2.4 0.4-3.6 0.5-4.7 0.8-50.6 12-87.4 41.4-110.4 88-3.4 6.8-5.8 14.1-8.1 21.4-0.5 1.5 1.2 3.8 1.8 5.7 1.6-1.2 3.3-2.4 4.8-3.8 0.5-0.5 0.5-1.5 0.8-2.3 13.7-40.8 39.9-71 78.5-89.9 11.4-5.6 24.1-8.3 36.1-12.5 1.6-0.6 3.3-2.5 3.9-4.1 0.4-0.9-2-2.6-2.7-3.3zm4.4 28c-1.1-5.2-3.8-4.8-6.8-4.1-40.3 10.4-70.2 34.1-89.7 70.7-2.9 5.4-5.2 11.2-7.2 17-0.5 1.3 1.2 3.4 1.9 5.2 1.5-0.9 3.2-1.7 4.5-2.9 0.7-0.6 0.7-1.8 1.1-2.7 10.2-26.2 27-47.2 50.6-62.7 12.3-8.1 25.7-13.9 40.1-17.5 2-0.5 3.9-2.1 5.5-3zm0 25.6c-1.3-5.2-4.1-4.6-6.9-3.7-18.9 5.7-35.2 15.6-48.8 29.9-8.8 9.2-15.9 19.6-20.9 31.4-0.6 1.4 0.7 3.6 1.1 5.5 1.7-0.8 3.5-1.4 5.1-2.5 0.7-0.5 0.8-1.8 1.4-2.6 6.2-9 11.7-18.6 18.9-26.8 12.1-13.8 27.8-22.5 45.2-28 1.8-0.7 3.5-2.3 4.9-3.2z"/>
	<path d="m195.8 256.9c0-33.5 26.7-60.1 60.4-60 33.4 0 59.8 26.8 59.8 60.7 0 33.3-26.9 59.5-60.9 59.4-32.8 0-59.3-27-59.3-60.1zm60 21.9c11.9 0 22-10 22.1-21.9 0.1-11.7-10.3-22-22.1-21.9-11.7 0.1-21.6 10.1-21.7 21.7-0.2 12 9.7 22.1 21.7 22.1z"/>
</svg>
