<svg class="icons" xmlns="http://www.w3.org/2000/svg" viewBox="0 0 512 512" fill="white">
                <path d="M256 8.1c-141.2 0-256 114.8-256 256C0 369.5 66 465.4 164.2 502.8c4.1 1.6 8.7 1.4 12.7-0.5 4-2 7-5.4 8.3-9.6l48-153.3c2.3-7.3-0.9-15.1-7.5-18.8C204.9 309.1 192 287.5 192 264.1c0-35.3 28.7-64 64-64s64 28.7 64 64c0 23.3-12.9 44.9-33.7 56.4 -6.7 3.6-9.8 11.5-7.5 18.8l48 153.3c1.3 4.2 4.3 7.7 8.3 9.6 2.2 1.1 4.6 1.6 7 1.6 1.9 0 3.9-0.4 5.7-1.1C446 465.4 512 369.5 512 264.1 512 123 397.2 8.1 256 8.1z" /> </svg>