<svg class="icons" xmlns="http://www.w3.org/2000/svg" viewBox="-49 141 512 512" fill="white">
                <path d="M129.2 156.1L129.2 156.1l0 481.9h155.6V156.1H129.2zM227.3 448.9h-21.5v-84.1h-19v-19.7h40.5V448.9z" />
                <path d="M-26.4 376.4c-4.1 0-7.5 3.4-7.5 7.5v246.4c0 4.1 3.4 7.5 7.5 7.5h140.6V376.4H-26.4zM66.5 550.4c-7.1 6.2-16.2 9.3-27.3 9.3S17 555.6 5.6 547.5l9.2-18.4c9.4 6.9 17.9 10.4 25.3 10.4 4.5 0 8.2-1.1 11.1-3.4 2.9-2.3 4.4-5.6 4.4-9.9 0-4.3-1.7-7.7-5-10.2 -3.3-2.5-8-3.8-13.9-3.8 -3.1 0-7.6 0.9-13.3 2.8v-17.1l19.2-23.5H11.2v-19.7h61.2v16L52 495c8 1.4 14.2 4.9 18.6 10.5 4.4 5.6 6.6 12 6.6 19.4C77.2 535.7 73.6 544.2 66.5 550.4z" />
                <path d="M440.4 302.4H299.9v335.6h140.5c4.2 0 7.5-3.4 7.5-7.5V309.9C447.9 305.7 444.6 302.4 440.4 302.4zM408.8 523.2h-70.6V506l29.3-31.2c5.9-6.2 10.1-11.2 12.7-14.9 2.5-3.7 3.8-7.3 3.8-10.8 0-3.5-1.1-6.4-3.3-8.7 -2.2-2.3-5-3.5-8.4-3.5 -6.3 0-12.3 4.7-17.9 14l-17.9-11c4.7-7.5 9.8-13.2 15.4-17.1 5.6-3.9 12.7-5.8 21.3-5.8 8.6 0 16.2 2.9 22.8 8.5 6.5 5.7 9.8 13.4 9.8 23.2 0 5.3-1.3 10.5-3.9 15.4 -2.6 4.9-7.5 11.2-14.5 18.8l-18 19.5h39.5L408.8 523.2 408.8 523.2z" /> </svg>